<?xml version="1.0" encoding="utf-8"?>
<!-- Generator: Adobe Illustrator 19.0.0, SVG Export Plug-In . SVG Version: 6.00 Build 0)  -->
<svg version="1.1" id="Layer_1" xmlns="http://www.w3.org/2000/svg" xmlns:xlink="http://www.w3.org/1999/xlink" x="0px" y="0px"
	 viewBox="0 0 44 44" style="enable-background:new 0 0 44 44;" xml:space="preserve">
<style type="text/css">
	.st0{fill:none;}
</style>
<rect id="XMLID_53_" class="st0" width="44" height="44"/>
<path id="XMLID_3_" d="M25.1,22l5.6-5.6c0.2-0.2,0.2-0.6,0-0.8l-2.2-2.2c-0.2-0.2-0.6-0.2-0.8,0L22,18.9l-5.6-5.6
	c-0.2-0.2-0.6-0.2-0.8,0l-2.2,2.2c-0.2,0.2-0.2,0.6,0,0.8l5.6,5.6l-5.6,5.6c-0.2,0.2-0.2,0.6,0,0.8l2.2,2.2c0.2,0.2,0.6,0.2,0.8,0
	l5.6-5.6l5.6,5.6c0.2,0.2,0.6,0.2,0.8,0l2.2-2.2c0.2-0.2,0.2-0.6,0-0.8L25.1,22z"/>
</svg>
